<?xml version="1.0" encoding="utf-8"?>
<!-- Generator: Adobe Illustrator 20.0.0, SVG Export Plug-In . SVG Version: 6.00 Build 0)  -->
<svg version="1.1" id="Layer_1" xmlns="http://www.w3.org/2000/svg" xmlns:xlink="http://www.w3.org/1999/xlink" x="0px" y="0px"
	 viewBox="0 0 48 57" style="enable-background:new 0 0 48 57;" xml:space="preserve">
<style type="text/css">
	.st2{fill:#20a8d8;}
</style>
<title>Artboard 2</title>

<path id="currentHumidityIcon" class="st2" d="M142,165c0.4,0.8,0.9,1.5,1.4,2.1c0.8,1.1,1.7,2.2,1.7,3.2c0,2.3-2.2,2.7-3.1,2.7 s-3.1-0.5-3.1-2.7c0-1,0.8-2,1.7-3.2C141,166.4,141.6,165.7,142,165 M142,162.2c0,3.1-3.9,5.5-3.9,8.1s2.3,3.5,3.9,3.5 s3.9-1,3.9-3.5S142,165.3,142,162.2L142,162.2z"/>
</svg>


